<mxfile host="app.diagrams.net" modified="2023-05-02T11:19:43.328Z" agent="Mozilla/5.0 (Windows NT 10.0; Win64; x64) AppleWebKit/537.36 (KHTML, like Gecko) Chrome/112.0.0.0 Safari/537.36" etag="IlEJk0GGNl5A1E5kHgVF" version="21.2.4" type="device">
  <diagram name="Side-1" id="mJbbSRpEYSBcn6BU7UY8">
    <mxGraphModel dx="1434" dy="796" grid="1" gridSize="10" guides="1" tooltips="1" connect="1" arrows="1" fold="1" page="1" pageScale="1" pageWidth="827" pageHeight="1169" math="0" shadow="0">
      <root>
        <mxCell id="0" />
        <mxCell id="1" parent="0" />
        <mxCell id="PN9_2wJ2ZAC1nF8-y4Fs-3" style="edgeStyle=orthogonalEdgeStyle;rounded=0;orthogonalLoop=1;jettySize=auto;html=1;" edge="1" parent="1" source="PN9_2wJ2ZAC1nF8-y4Fs-5" target="PN9_2wJ2ZAC1nF8-y4Fs-4">
          <mxGeometry relative="1" as="geometry">
            <mxPoint x="388" y="300" as="targetPoint" />
          </mxGeometry>
        </mxCell>
        <mxCell id="PN9_2wJ2ZAC1nF8-y4Fs-1" value="ved submit:&amp;nbsp;&lt;br&gt;find 3 dom elementer og sammenlign med indtastede værdier og betingelser.&amp;nbsp;" style="rounded=0;whiteSpace=wrap;html=1;" vertex="1" parent="1">
          <mxGeometry x="278" y="60" width="216" height="120" as="geometry" />
        </mxCell>
        <mxCell id="PN9_2wJ2ZAC1nF8-y4Fs-8" style="edgeStyle=orthogonalEdgeStyle;rounded=0;orthogonalLoop=1;jettySize=auto;html=1;entryX=0.5;entryY=0;entryDx=0;entryDy=0;" edge="1" parent="1" source="PN9_2wJ2ZAC1nF8-y4Fs-4" target="PN9_2wJ2ZAC1nF8-y4Fs-7">
          <mxGeometry relative="1" as="geometry" />
        </mxCell>
        <mxCell id="PN9_2wJ2ZAC1nF8-y4Fs-4" value="hvis betingelserne er korrekt opfyldt skal der være grøn ramme omkring dom felterne." style="rounded=0;whiteSpace=wrap;html=1;" vertex="1" parent="1">
          <mxGeometry x="273" y="480" width="230" height="70" as="geometry" />
        </mxCell>
        <mxCell id="PN9_2wJ2ZAC1nF8-y4Fs-6" value="" style="edgeStyle=orthogonalEdgeStyle;rounded=0;orthogonalLoop=1;jettySize=auto;html=1;exitX=0.25;exitY=1;exitDx=0;exitDy=0;" edge="1" parent="1" source="PN9_2wJ2ZAC1nF8-y4Fs-1" target="PN9_2wJ2ZAC1nF8-y4Fs-5">
          <mxGeometry relative="1" as="geometry">
            <mxPoint x="388" y="480" as="targetPoint" />
            <mxPoint x="400" y="170" as="sourcePoint" />
            <Array as="points">
              <mxPoint x="388" y="180" />
            </Array>
          </mxGeometry>
        </mxCell>
        <mxCell id="PN9_2wJ2ZAC1nF8-y4Fs-5" value="Hvis betingelser ikke er opfyldte i vores doms, skal felterne have rød ramme der indikerere dette.&amp;nbsp;" style="rounded=0;whiteSpace=wrap;html=1;" vertex="1" parent="1">
          <mxGeometry x="278" y="270" width="220" height="60" as="geometry" />
        </mxCell>
        <mxCell id="PN9_2wJ2ZAC1nF8-y4Fs-7" value="Ved submit skal formen forsvinde og en (alert) meddelelse om gennemførelse." style="rounded=0;whiteSpace=wrap;html=1;" vertex="1" parent="1">
          <mxGeometry x="269.5" y="670" width="237" height="70" as="geometry" />
        </mxCell>
      </root>
    </mxGraphModel>
  </diagram>
</mxfile>
